<svg width="20" height="21" viewBox="0 0 20 21" fill="none" xmlns="http://www.w3.org/2000/svg">
<path fill-rule="evenodd" clip-rule="evenodd" d="M9.5575 1.55033C9.61556 1.49166 9.68453 1.44511 9.76046 1.41335C9.83639 1.38158 9.91779 1.36523 10 1.36523C10.0822 1.36523 10.1636 1.38158 10.2395 1.41335C10.3155 1.44511 10.3844 1.49166 10.4425 1.55033L17.9425 9.11082C18.0005 9.16943 18.0465 9.239 18.0778 9.31554C18.1091 9.39208 18.1251 9.47409 18.125 9.55689V18.3775C18.125 18.5445 18.0592 18.7048 17.9419 18.823C17.8247 18.9411 17.6658 19.0075 17.5 19.0075H11.875C11.7092 19.0075 11.5503 18.9411 11.4331 18.823C11.3158 18.7048 11.25 18.5445 11.25 18.3775V13.3371H8.75V18.3775C8.75 18.5445 8.68415 18.7048 8.56694 18.823C8.44973 18.9411 8.29076 19.0075 8.125 19.0075H2.5C2.33424 19.0075 2.17527 18.9411 2.05806 18.823C1.94085 18.7048 1.875 18.5445 1.875 18.3775V9.55689C1.87485 9.47409 1.8909 9.39208 1.92221 9.31554C1.95353 9.239 1.9995 9.16943 2.0575 9.11082L9.5575 1.55033ZM3.125 9.81772V17.7474H7.5V12.7071C7.5 12.54 7.56585 12.3797 7.68306 12.2616C7.80027 12.1434 7.95924 12.077 8.125 12.077H11.875C12.0408 12.077 12.1997 12.1434 12.3169 12.2616C12.4342 12.3797 12.5 12.54 12.5 12.7071V17.7474H16.875V9.81772L10 2.88728L3.125 9.81772Z" fill="#293B4D"/>
<path fill-rule="evenodd" clip-rule="evenodd" d="M16.25 3.25699V7.66728L13.75 5.14711V3.25699C13.75 3.0899 13.8158 2.92964 13.9331 2.81149C14.0503 2.69333 14.2092 2.62695 14.375 2.62695H15.625C15.7908 2.62695 15.9497 2.69333 16.0669 2.81149C16.1842 2.92964 16.25 3.0899 16.25 3.25699Z" fill="#293B4D"/>
</svg>
