<svg width="20" height="21" viewBox="0 0 20 21" fill="none" xmlns="http://www.w3.org/2000/svg">
<path d="M12.7062 13.7994L14.1062 12.3881C14.2948 12.2004 14.5334 12.0719 14.793 12.0182C15.0526 11.9645 15.3221 11.988 15.5687 12.0857L17.275 12.7725C17.5243 12.8744 17.738 13.0485 17.8892 13.2728C18.0405 13.497 18.1225 13.7614 18.125 14.0325V17.1827C18.1235 17.3672 18.0851 17.5495 18.0119 17.7185C17.9388 17.8876 17.8324 18.04 17.6993 18.1666C17.5661 18.2931 17.409 18.3912 17.2372 18.4549C17.0655 18.5187 16.8828 18.5467 16.7 18.5373C4.74375 17.7876 2.33125 7.58092 1.875 3.67467C1.85382 3.48285 1.87317 3.28868 1.93178 3.10493C1.99039 2.92119 2.08693 2.75204 2.21504 2.6086C2.34316 2.46517 2.49995 2.35071 2.6751 2.27275C2.85025 2.19479 3.03979 2.15509 3.23125 2.15628H6.25C6.51938 2.15708 6.78236 2.23911 7.00512 2.3918C7.22788 2.5445 7.40023 2.76089 7.5 3.01313L8.18125 4.73314C8.28141 4.98079 8.30696 5.2527 8.25472 5.5149C8.20247 5.77711 8.07475 6.01798 7.8875 6.20744L6.4875 7.61873C6.4875 7.61873 7.29375 13.119 12.7062 13.7994Z" fill="#293B4D"/>
</svg>
