<svg width="80" height="80" viewBox="0 0 80 80" fill="none" xmlns="http://www.w3.org/2000/svg">
<path d="M56.6667 53.3332L43.3333 39.9999V29.3999C47.8333 27.7666 50.8667 23.0999 49.7667 17.8666C49.3392 15.9235 48.3443 14.1512 46.9082 12.7744C45.472 11.3976 43.6593 10.4783 41.7 10.1332C40.2632 9.88593 38.7896 9.95572 37.3826 10.3377C35.9756 10.7196 34.669 11.4046 33.5545 12.3445C32.4399 13.2844 31.5443 14.4566 30.9303 15.7789C30.3163 17.1013 29.9988 18.5419 30 19.9999C30 24.3332 32.8 27.9999 36.6667 29.3999V39.9999L23.3333 53.3332H13.3333C11.5 53.3332 10 54.8332 10 56.6666V66.6666C10 68.4999 11.5 69.9999 13.3333 69.9999H23.3333C25.1667 69.9999 26.6667 68.4999 26.6667 66.6666V59.8332L40 45.8332L53.3333 59.8332V66.6666C53.3333 68.4999 54.8333 69.9999 56.6667 69.9999H66.6667C68.5 69.9999 70 68.4999 70 66.6666V56.6666C70 54.8332 68.5 53.3332 66.6667 53.3332H56.6667Z" fill="black"/>
</svg>
