<svg width="80" height="80" viewBox="0 0 80 80" fill="none" xmlns="http://www.w3.org/2000/svg">
<path d="M72.3533 17.637L62.3567 7.64366C62.0476 7.33352 61.6803 7.08756 61.2759 6.91994C60.8714 6.75233 60.4378 6.66636 60 6.667H20C19.5622 6.66636 19.1286 6.75233 18.7241 6.91994C18.3197 7.08756 17.9524 7.33352 17.6433 7.64366L7.64666 17.637C7.33522 17.9459 7.08822 18.3136 6.92 18.7187C6.75177 19.1238 6.66566 19.5583 6.66667 19.997V63.3337C6.66667 67.0103 9.65667 70.0003 13.3333 70.0003H66.6667C70.3433 70.0003 73.3333 67.0103 73.3333 63.3337V19.997C73.3343 19.5583 73.2482 19.1238 73.08 18.7187C72.9118 18.3136 72.6648 17.9459 72.3533 17.637ZM21.38 13.3337H58.62L61.95 16.6637H18.05L21.38 13.3337ZM13.3333 63.3337V23.3303H66.6667L66.6733 63.3337H13.3333Z" fill="black"/>
<path d="M50 39.9997H30V33.333H23.3333V46.6663H56.6666V33.333H50V39.9997Z" fill="black"/>
</svg>
