<svg width="80" height="80" viewBox="0 0 80 80" fill="none" xmlns="http://www.w3.org/2000/svg">
<path d="M34.8582 52.8216C34.1958 53.5074 33.8293 54.4259 33.8376 55.3794C33.8458 56.3328 34.2283 57.2449 34.9025 57.9191C35.5767 58.5933 36.4887 58.9757 37.4422 58.984C38.3956 58.9923 39.3142 58.6258 40 57.9634L56.3127 41.287C56.4821 41.1181 56.6164 40.9175 56.708 40.6966C56.7997 40.4757 56.8469 40.2389 56.8469 39.9997C56.8469 39.7606 56.7997 39.5238 56.708 39.3029C56.6164 39.082 56.4821 38.8814 56.3127 38.7125L39.92 22.1234C39.2342 21.461 38.3156 21.0945 37.3622 21.1027C36.4087 21.111 35.4967 21.4935 34.8225 22.1677C34.1483 22.8419 33.7658 23.7539 33.7576 24.7074C33.7493 25.6608 34.1158 26.5794 34.7782 27.2652L43.6364 36.3634H10.9091C9.94468 36.3634 9.01975 36.7465 8.3378 37.4284C7.65585 38.1104 7.27274 39.0353 7.27274 39.9997C7.27274 40.9642 7.65585 41.8891 8.3378 42.571C9.01975 43.253 9.94468 43.6361 10.9091 43.6361H43.6364L34.8582 52.8216ZM65.4546 7.27246H32.7273C31.7629 7.27246 30.8379 7.65558 30.156 8.33753C29.474 9.01948 29.0909 9.9444 29.0909 10.9088C29.0909 11.8732 29.474 12.7982 30.156 13.4801C30.8379 14.1621 31.7629 14.5452 32.7273 14.5452H61.8182C62.7826 14.5452 63.7075 14.9283 64.3895 15.6103C65.0714 16.2922 65.4546 17.2171 65.4546 18.1816V61.8179C65.4546 62.7823 65.0714 63.7073 64.3895 64.3892C63.7075 65.0712 62.7826 65.4543 61.8182 65.4543H32.7273C31.7629 65.4543 30.8379 65.8374 30.156 66.5193C29.474 67.2013 29.0909 68.1262 29.0909 69.0906C29.0909 70.0551 29.474 70.98 30.156 71.6619C30.8379 72.3439 31.7629 72.727 32.7273 72.727H65.4546C67.3834 72.727 69.2332 71.9608 70.5971 70.5969C71.961 69.233 72.7273 67.3831 72.7273 65.4543V14.5452C72.7273 12.6163 71.961 10.7665 70.5971 9.40259C69.2332 8.03869 67.3834 7.27246 65.4546 7.27246Z" fill="black"/>
</svg>
