<svg width="80" height="80" viewBox="0 0 80 80" fill="none" xmlns="http://www.w3.org/2000/svg">
<path d="M40 19.0003L60 34.0003V64.0003H20V34.0003L40 19.0003ZM40 10.667L13.3333 30.667V70.667H66.6667V30.667L40 10.667ZM38.3333 32.3337V42.3337H36.6667V32.3337H33.3333V42.3337H31.6667V32.3337H28.3333V42.3337C28.3333 45.1003 30.5667 47.3337 33.3333 47.3337V60.667H36.6667V47.3337C39.4333 47.3337 41.6667 45.1003 41.6667 42.3337V32.3337H38.3333ZM43.3333 39.0003V49.0003H46.6667V60.667H50V32.3337C46.3333 32.3337 43.3333 35.3337 43.3333 39.0003Z" fill="black"/>
</svg>
