<svg width="80" height="80" viewBox="0 0 80 80" fill="none" xmlns="http://www.w3.org/2000/svg">
<path d="M70 55.0003C70 56.267 69.3 57.367 68.2333 57.9337L41.9 72.7337C41.3667 73.1337 40.7 73.3337 40 73.3337C39.3 73.3337 38.6333 73.1337 38.1 72.7337L11.7667 57.9337C11.2323 57.6528 10.7851 57.2309 10.4736 56.7138C10.1621 56.1966 9.99834 55.604 10 55.0003V25.0003C10 23.7337 10.7 22.6337 11.7667 22.067L38.1 7.26699C38.6333 6.86699 39.3 6.66699 40 6.66699C40.7 6.66699 41.3667 6.86699 41.9 7.26699L68.2333 22.067C69.3 22.6337 70 23.7337 70 25.0003V55.0003ZM40 23.3337C35.5797 23.3337 31.3405 25.0896 28.2149 28.2152C25.0893 31.3408 23.3333 35.5801 23.3333 40.0003C23.3333 44.4206 25.0893 48.6598 28.2149 51.7854C31.3405 54.911 35.5797 56.667 40 56.667C44.4203 56.667 48.6595 54.911 51.7851 51.7854C54.9107 48.6598 56.6667 44.4206 56.6667 40.0003C56.6667 35.5801 54.9107 31.3408 51.7851 28.2152C48.6595 25.0896 44.4203 23.3337 40 23.3337Z" fill="black"/>
</svg>
