<svg width="80" height="80" viewBox="0 0 80 80" fill="none" xmlns="http://www.w3.org/2000/svg">
<path d="M75.776 23.6004C75.904 24.0644 75.7424 24.5764 75.472 24.9764L66.848 37.8084C66.528 38.3044 65.856 38.5764 65.2944 38.5764C65.1344 38.5764 64.6864 38.5444 64.512 38.4964L57.6 36.8004V67.2004C57.6 68.1284 56.944 68.8004 56 68.8004H22.4C21.456 68.8004 20.8 68.1284 20.8 67.2004V36.8004L14.592 38.5124C13.872 38.7364 13.248 38.4484 12.848 37.8244L4.28799 25.0244C4.01599 24.6084 3.93599 24.1444 4.06399 23.6804C4.17599 23.2004 4.51199 22.8804 4.94399 22.6564L22.4 14.4004H30.4C31.344 14.4004 32 15.0564 32 16.0004C32 19.2964 36.624 21.6324 39.92 21.6324C43.216 21.6324 48 19.3124 48 16.0004C48 15.0724 48.656 14.4004 49.6 14.4004H57.6L74.88 22.4964C75.328 22.7204 75.648 23.1204 75.776 23.6004Z" fill="black"/>
</svg>
