<svg width="80" height="80" viewBox="0 0 80 80" fill="none" xmlns="http://www.w3.org/2000/svg">
<path d="M77.5 56.945L72.8725 56.4113C72.7962 56.4025 65.2812 55.5038 62.165 52.3788C57.7475 47.9475 60.105 38.0538 60.13 37.955L60.4987 36.44L59.025 36.9375C58.9963 36.9475 56.12 37.9038 52.7637 37.9038C49.8512 37.9038 47.4975 37.2063 45.7487 35.8313L52.2325 29.3325L52.575 29.6738C52.7438 29.8463 52.9325 29.98 53.05 29.9688C53.54 29.9225 53.2838 29.1313 53.4188 28.14L57.9987 23.5475L58.3925 23.9413L65.535 16.78C66.705 15.6075 68.9337 15.94 70.515 17.5238C72.0925 19.1088 72.4238 21.345 71.255 22.5163L71.2337 22.5363C70.6475 23.125 70.815 24.2413 71.6038 25.0325C72.395 25.8263 73.5088 25.9925 74.095 25.405C74.095 25.4025 74.0975 25.4013 74.0988 25.4C74.1051 25.3956 74.1106 25.3901 74.115 25.3838C76.455 23.0375 75.7913 18.5688 72.6312 15.4013C69.4737 12.2338 65.0138 11.5688 62.6725 13.915L55.5312 21.0763L55.9088 21.4563L43.7837 33.6138C40.5687 28.5538 42.815 21.4525 42.8387 21.3738L43.3038 19.9563L41.8488 20.2663C41.8263 20.2713 39.635 20.7313 36.8775 20.7313C34.0125 20.7313 30.0975 20.2288 27.7075 17.8338C24.5963 14.7138 23.6963 7.175 23.6875 7.09875L23.1588 2.5L5.1575 72.7425L2.755 75.15C2.32875 75.5788 2.44875 76.395 3.02625 76.9725C3.60375 77.5513 4.41625 77.6725 4.84375 77.2438L7.23875 74.8413L77.5 56.945ZM60.7525 53.7938C62.5 55.5475 65.2738 56.675 67.7038 57.375L11.6212 71.66L57.7088 40.2175C57.2537 43.83 57.105 50.135 60.7525 53.7938ZM43.6037 36.5975C45.7925 38.7925 48.875 39.905 52.7637 39.905C53.2487 39.905 53.7238 39.8875 54.1813 39.8563L9.98625 70.0075L40.0462 26.0275C39.8975 29.3088 40.4912 33.4763 43.6037 36.5975ZM22.7187 12.2563C23.4187 14.6975 24.5438 17.49 26.2975 19.2488C28.5713 21.5288 32.23 22.7338 36.8787 22.7338C37.89 22.7338 38.825 22.6763 39.6225 22.6025L8.3375 68.3725L22.7187 12.2563Z" fill="black"/>
</svg>
