<svg width="99" height="63" viewBox="0 0 99 63" fill="none" xmlns="http://www.w3.org/2000/svg">
<g filter="url(#filter0_d)">
<path fill-rule="evenodd" clip-rule="evenodd" d="M31.7427 11.2145C30.6857 11.8461 28.8715 14.2861 27.6742 16.6865C26.7458 18.5476 24.2728 24.6215 22.7132 28.8712C22.0322 30.7267 21.4207 32.245 21.3544 32.245C21.1985 32.245 20.1111 29.7281 17.1598 22.5363C15.8465 19.336 14.5568 16.3184 14.2939 15.8308C13.4519 14.2694 12.2397 14.089 11.352 15.3929C10.844 16.1391 10.8899 18.4816 11.4632 21.0673C12.2216 24.4877 14.6182 31.0405 17.1823 36.7038C18.5469 39.718 19.4182 41.1772 20.3218 41.9618C22.0528 43.4649 24.4837 42.4976 25.1186 40.053C26.3417 35.3453 27.4715 32.07 30.5809 24.2193C32.7339 18.7827 33.24 17.3656 33.7431 15.3621C34.4483 12.5531 34.0863 10.9879 32.7337 11.0001C32.3807 11.0033 31.9347 11.0999 31.7427 11.2145ZM73.7268 11.1145C72.3865 11.2833 70.6086 11.829 69.4312 12.4332C67.4966 13.4257 65.8711 15.19 65.8711 16.2975C65.8711 16.7757 65.9494 16.7793 66.6361 16.3323C67.3415 15.8733 69.258 15.1037 71.021 14.5717C72.8702 14.0137 75.5561 13.9763 77.3523 14.4836C80.0611 15.2489 80.9605 13.816 78.774 12.2184C77.6897 11.4262 75.3372 10.9117 73.7268 11.1145ZM71.5298 14.8627C69.7307 15.7353 69.6403 18.2429 71.375 19.1556C72.9306 19.9741 74.6014 18.811 74.599 16.9113C74.5983 16.3106 74.0534 15.2703 73.602 15.0079C73.0057 14.6609 72.0796 14.596 71.5298 14.8627ZM76.8849 18.0196C74.7166 19.7754 73.9918 20.009 71.2907 19.8221C67.5016 19.5597 67.3627 19.5682 67.2979 20.0648C67.211 20.7313 68.5196 22.0377 69.799 22.5613C71.8547 23.403 74.791 23.2461 76.684 22.1938C77.6188 21.6741 78.9351 20.3376 79.3204 19.517C79.7015 18.7051 79.7746 17.2641 79.4527 16.9142C79.0463 16.4725 78.5107 16.703 76.8849 18.0196ZM37.661 22.5613C33.8028 23.204 30.3936 26.3066 29.0986 30.3538C27.3966 35.6731 29.7556 40.7776 34.7104 42.4972C35.7012 42.841 36.3288 42.9202 38.0272 42.9152C42.3623 42.9023 44.416 41.7753 47.4116 37.765L48.4614 36.3596L45.5137 36.4765C43.6683 36.5497 41.8946 36.7383 40.7706 36.9806C38.6609 37.4356 37.0952 37.4732 35.9435 37.0964C35.1843 36.848 34.4475 36.3359 34.4492 36.0577C34.4496 35.9957 35.412 35.934 36.5877 35.9209C42.7928 35.8517 47.2794 32.6724 46.7784 28.6997C46.2889 24.8185 41.8901 21.857 37.661 22.5613ZM58.3646 24.6431C57.496 24.9313 56.4952 25.5914 55.5993 26.4669C55.0965 26.9583 54.6653 27.3279 54.6412 27.2886C54.6171 27.2492 54.4434 26.8889 54.2552 26.4878C53.5465 24.9778 52.0698 24.4737 51.2797 25.4721C51.0564 25.7542 50.8181 26.305 50.7502 26.6959C50.5793 27.6803 51.5508 40.1965 51.919 41.7544C52.369 43.6584 54.3565 44.605 55.7545 43.5812C56.8651 42.7676 57.003 42.2646 57.0573 38.8306C57.095 36.4433 57.1873 35.4229 57.4696 34.2704C57.865 32.6565 58.5359 31.1646 59.1469 30.5407C59.484 30.1966 59.562 30.1816 59.7483 30.4254C60.1749 30.9842 60.4572 32.7872 60.6421 36.1346C60.7458 38.013 60.9114 39.8863 61.0099 40.2974C61.2395 41.2554 62.1085 42.1974 63.0431 42.5018C64.4491 42.9596 65.9879 42.0098 66.3891 40.4361C66.7276 39.1085 66.0997 32.6229 65.4031 30.2527C64.6174 27.5793 63.001 25.3653 61.4023 24.7733C60.5394 24.4538 59.1189 24.3929 58.3646 24.6431ZM72.542 24.7532C71.4029 25.2879 71.2503 26.602 71.7355 31.6966C71.8884 33.3026 72.0312 35.8547 72.0528 37.3679C72.0839 39.5487 72.1548 40.2486 72.3943 40.7441C73.2651 42.5458 75.7436 42.5458 76.639 40.7441C77.1115 39.7933 76.9904 37.9299 76.0985 32.4347C75.1808 26.7805 74.9509 25.8552 74.2983 25.1909C73.6537 24.5348 73.2314 24.4295 72.542 24.7532ZM40.7306 27.8133C41.4959 28.1597 42.1296 28.7972 42.1296 29.2204C42.1296 29.897 40.166 30.7901 36.5362 31.7645C35.148 32.1372 33.8747 32.489 33.7066 32.5461C33.2754 32.6927 33.3199 32.3364 33.8986 31.0117C34.3794 29.9108 35.5012 28.579 36.3873 28.0569C37.6212 27.3296 39.4379 27.2277 40.7306 27.8133Z" fill="white"/>
</g>
<defs>
<filter id="filter0_d" x="0" y="0" width="99" height="63" filterUnits="userSpaceOnUse" color-interpolation-filters="sRGB">
<feFlood flood-opacity="0" result="BackgroundImageFix"/>
<feColorMatrix in="SourceAlpha" type="matrix" values="0 0 0 0 0 0 0 0 0 0 0 0 0 0 0 0 0 0 127 0"/>
<feOffset dx="4" dy="4"/>
<feGaussianBlur stdDeviation="7.5"/>
<feColorMatrix type="matrix" values="0 0 0 0 0 0 0 0 0 0 0 0 0 0 0 0 0 0 0.25 0"/>
<feBlend mode="normal" in2="BackgroundImageFix" result="effect1_dropShadow"/>
<feBlend mode="normal" in="SourceGraphic" in2="effect1_dropShadow" result="shape"/>
</filter>
</defs>
</svg>
