<?xml version="1.0" encoding="utf-8"?>
<svg version="1.1" id="Слой_1" x="0px" y="0px" viewBox="0 0 800 800" style="enable-background:new 0 0 800 800;" xmlns="http://www.w3.org/2000/svg">
  <style type="text/css">
	.st0{fill:none;stroke:#000000;stroke-width:8;stroke-miterlimit:10;}
	.st1{stroke:#000000;stroke-width:8;stroke-miterlimit:10;}
</style>
  <g>
    <polyline class="st0" points="192.4,401 192.4,647.4 633.9,644.2 633.9,401 &#9;" style="stroke: rgb(255, 255, 255);"/>
    <path class="st0" d="M633.8,404.3" style="stroke: rgb(255, 255, 255);"/>
    <line class="st0" x1="634" y1="404.3" x2="633.8" y2="404.3" style="stroke: rgb(255, 255, 255);"/>
  </g>
  <polyline class="st0" points="120.1,427.9 408.4,102.7 706.3,427.9 " style="stroke: rgb(255, 255, 255);"/>
  <path class="st0" d="M453,423v-25.2c0-25-20.2-45.2-45.2-45.2h-1.5c-25,0-45.2,20.2-45.2,45.2v26.1c-7.7,3.2-13,10.7-13,19.6v67.9 c0,11.7,9.5,21.2,21.2,21.2h78.4c11.7,0,21.2-9.5,21.2-21.2v-67.9C468.8,433.6,462.1,425.4,453,423z" style="stroke: rgb(255, 255, 255);"/>
  <line class="st0" x1="361.1" y1="423.9" x2="453" y2="423" style="stroke: rgb(255, 255, 255);"/>
  <path class="st0" d="M409.1,499.1h-2c-1.6,0-2.9-1.3-2.9-2.9v-30.1h8.5v29.4C412.7,497.5,411.1,499.1,409.1,499.1z" style="stroke: rgb(255, 255, 255);"/>
  <circle class="st1" cx="408.4" cy="461.9" r="13.2" style="stroke: rgb(255, 255, 255); fill: rgb(255, 255, 255);"/>
  <circle class="st0" cx="368" cy="576.2" r="19.9" style="stroke: rgb(255, 255, 255);"/>
  <circle class="st0" cx="448.9" cy="576.2" r="19.9" style="stroke: rgb(255, 255, 255);"/>
  <circle class="st0" cx="238.2" cy="440.9" r="19.9" style="stroke: rgb(255, 255, 255);"/>
  <circle class="st0" cx="582.9" cy="440.9" r="19.9" style="stroke: rgb(255, 255, 255);"/>
  <circle class="st0" cx="543" cy="311.4" r="19.9" style="stroke: rgb(255, 255, 255);"/>
  <circle class="st0" cx="448.9" cy="311.4" r="19.9" style="stroke: rgb(255, 255, 255);"/>
  <circle class="st0" cx="368" cy="311.4" r="19.9" style="stroke: rgb(255, 255, 255);"/>
  <circle class="st0" cx="272.6" cy="311.4" r="19.9" style="stroke: rgb(255, 255, 255);"/>
  <circle class="st0" cx="272.6" cy="576.2" r="19.9" style="stroke: rgb(255, 255, 255);"/>
  <circle class="st0" cx="543" cy="576.2" r="19.9" style="stroke: rgb(255, 255, 255);"/>
  <line class="st0" x1="258.1" y1="440.9" x2="299.1" y2="440.9" style="stroke: rgb(255, 255, 255);"/>
  <line class="st0" x1="562.9" y1="440.9" x2="516.6" y2="440.9" style="stroke: rgb(255, 255, 255);"/>
  <path class="st0" d="M327.4,488.9c-1.9-0.3-38-6.4-51.1,13.4c0,0,0,0,0,0.1c-2.4,3.7-3.7,8.1-3.7,12.6v41.3" style="stroke: rgb(255, 255, 255);"/>
  <path class="st0" d="M490.6,488.9c3.5-0.5,37.6-4.8,49.5,14.1c0,0,0,0,0,0.1c2,3.1,2.9,6.7,2.9,10.4v42.9" style="stroke: rgb(255, 255, 255);"/>
  <path class="st0" d="M490.6,393.2c2.3,0.4,39.2,6.2,50.1-12.1c0.8-1.3,1.2-1.4,1.5-2.4c0.3-0.7,0.4-1.5,0.4-2.3 c0-14.3,0.5-30.8,0.5-45" style="stroke: rgb(255, 255, 255);"/>
  <path class="st0" d="M327.4,393.2c-5.3,0.9-33.3,5-49.4-12.3c0,0,0,0-0.1-0.1c-3.5-3.8-5.3-8.8-5.3-14v-35.5" style="stroke: rgb(255, 255, 255);"/>
  <line class="st0" x1="448.9" y1="596.1" x2="448.9" y2="637.5" style="stroke: rgb(255, 255, 255);"/>
  <line class="st0" x1="368" y1="596.1" x2="368" y2="637.5" style="stroke: rgb(255, 255, 255);"/>
  <line class="st0" x1="368" y1="291.5" x2="368" y2="248.4" style="stroke: rgb(255, 255, 255);"/>
  <line class="st0" x1="448.9" y1="291.5" x2="448.9" y2="248.4" style="stroke: rgb(255, 255, 255);"/>
  <line class="st0" x1="327.4" y1="440.9" x2="318.9" y2="440.9" style="stroke: rgb(255, 255, 255);"/>
  <line class="st0" x1="501.1" y1="439.7" x2="492.6" y2="439.7" style="stroke: rgb(255, 255, 255);"/>
</svg>