<svg width="20" height="21" viewBox="0 0 20 21" fill="none" xmlns="http://www.w3.org/2000/svg">
<path fill-rule="evenodd" clip-rule="evenodd" d="M9.5575 1.54887C9.61556 1.49019 9.68453 1.44364 9.76046 1.41188C9.83639 1.38012 9.91779 1.36377 10 1.36377C10.0822 1.36377 10.1636 1.38012 10.2395 1.41188C10.3155 1.44364 10.3844 1.49019 10.4425 1.54887L17.9425 9.10935C18.0005 9.16797 18.0465 9.23754 18.0778 9.31408C18.1091 9.39062 18.1251 9.47263 18.125 9.55542V18.376C18.125 18.5431 18.0592 18.7033 17.9419 18.8215C17.8247 18.9396 17.6658 19.006 17.5 19.006H11.875C11.7092 19.006 11.5503 18.9396 11.4331 18.8215C11.3158 18.7033 11.25 18.5431 11.25 18.376V13.3357H8.75V18.376C8.75 18.5431 8.68415 18.7033 8.56694 18.8215C8.44973 18.9396 8.29076 19.006 8.125 19.006H2.5C2.33424 19.006 2.17527 18.9396 2.05806 18.8215C1.94085 18.7033 1.875 18.5431 1.875 18.376V9.55542C1.87485 9.47263 1.8909 9.39062 1.92221 9.31408C1.95353 9.23754 1.9995 9.16797 2.0575 9.10935L9.5575 1.54887ZM3.125 9.81626V17.7459H7.5V12.7056C7.5 12.5385 7.56585 12.3783 7.68306 12.2601C7.80027 12.142 7.95924 12.0756 8.125 12.0756H11.875C12.0408 12.0756 12.1997 12.142 12.3169 12.2601C12.4342 12.3783 12.5 12.5385 12.5 12.7056V17.7459H16.875V9.81626L10 2.88581L3.125 9.81626Z" fill="#293B4D"/>
<path fill-rule="evenodd" clip-rule="evenodd" d="M16.25 3.25504V7.66532L13.75 5.14516V3.25504C13.75 3.08794 13.8158 2.92769 13.9331 2.80953C14.0503 2.69138 14.2092 2.625 14.375 2.625H15.625C15.7908 2.625 15.9497 2.69138 16.0669 2.80953C16.1842 2.92769 16.25 3.08794 16.25 3.25504Z" fill="#293B4D"/>
</svg>
