<?xml version="1.0" encoding="utf-8"?>
<svg version="1.1" id="Слой_2" x="0px" y="0px" viewBox="0 0 800 800" style="enable-background:new 0 0 800 800;" xmlns="http://www.w3.org/2000/svg">
  <style type="text/css">
	.st0{fill:none;stroke:#000000;stroke-width:8;stroke-linejoin:round;stroke-miterlimit:10;}
	.st1{display:none;fill:#FFFFFF;stroke:#000000;stroke-width:8;stroke-linejoin:round;stroke-miterlimit:10;}
	.st2{stroke:#000000;stroke-width:8;stroke-linejoin:round;stroke-miterlimit:10;}
</style>
  <polyline class="st0" points="320.7,605.3 320.7,575.3 449.3,575.3 449.3,605.3 320.7,605.3 " style="stroke: rgb(255, 255, 255);"/>
  <rect x="338.7" y="416.7" class="st0" width="94.3" height="158.6" style="stroke: rgb(255, 255, 255);"/>
  <g id="Слой_3">
    <polygon class="st1" points="152.7,295.2 152.7,333.3 383.7,200.3 612.8,334.3 613.8,295.2 384.7,159.7 &#9;"/>
    <g id="Слой_6"/>
  </g>
  <g id="Слой_7"/>
  <g id="Слой_4">
    <polygon class="st0" points="155,366.6 155,323.6 386.3,189.3 616.7,325.6 616.7,366.6 385.4,229.3 &#9;" style="stroke: rgb(255, 255, 255);"/>
    <g id="Слой_5">
      <g>
        <path class="st0" d="M214.8,581.8c0.8-0.9,6.8-7.7,15.3-7.1c8.9,0.6,17.1,9.2,17.7,20.8c11.5-5.6,25.4-1.1,31.5,9.9h213.7 c0.2-0.4,0.4-0.8,0.6-1.2c5.1-8.4,16.5-12.6,27.6-9.2c0.3-1.1,3.6-11.7,14.6-15.7c10.3-3.8,19.1,1.4,20.3,2.1 c4.2-14,18.4-22,31.8-19.1V351.1l-203-122.6l-197,119.6V565C199.4,562.4,211.6,569.7,214.8,581.8z" style="stroke: rgb(255, 255, 255);"/>
        <path class="st0" d="M490.9,617.8H282.1c-0.4,8.2-5.1,16.1-12.9,20.1h236.1v-0.1C496.8,633.6,491.9,625.7,490.9,617.8z" style="stroke: rgb(255, 255, 255);"/>
        <path class="st0" d="M492.9,605.3H279.3c0.2,0.3,0.4,0.7,0.5,1c1.8,3.7,2.5,7.6,2.3,11.5h208.8C490.4,613.4,491,609,492.9,605.3z " style="stroke: rgb(255, 255, 255);"/>
        <path class="st0" d="M187.9,565c-0.4,0.1-0.8,0.2-1.2,0.3c-11.1,3.2-18.2,14.8-15.8,26.7c-9,3.3-15.4,11.3-16.3,20.4 c-1.1,10.8,5.5,21.4,16.3,25.5c31,0,61.9,0,92.9,0" style="stroke: rgb(255, 255, 255);"/>
        <path class="st0" d="M272.8,617.8" style="stroke: rgb(255, 255, 255);"/>
        <path class="st0" d="M263.7,637.9h5.5c7.8-4.1,12.5-11.9,12.9-20.1" style="stroke: rgb(255, 255, 255);"/>
        <path class="st0" d="M505.3,637.8c0.1,0,0.1,0.1,0.2,0.1h101.1c7.2-2.5,12.5-8.6,13.6-15.7c1.4-9-4.2-18.4-13.6-21.9 c6.7-14.7-0.7-32-15.2-37.3c-1.2-0.4-2.3-0.7-3.5-1" style="stroke: rgb(255, 255, 255);"/>
        <path class="st0" d="M505.3,617.8" style="stroke: rgb(255, 255, 255);"/>
        <path class="st0" d="M505.3,605.3" style="stroke: rgb(255, 255, 255);"/>
        <path class="st0" d="M587.9,562c-13.4-2.8-27.6,5.2-31.8,19.1c-1.1-0.7-9.9-5.8-20.3-2.1c-11,4-14.3,14.6-14.6,15.7 c-11.1-3.4-22.5,0.8-27.6,9.2c-0.2,0.4-0.4,0.8-0.6,1.2" style="stroke: rgb(255, 255, 255);"/>
        <path class="st0" d="M587.9,617.8" style="stroke: rgb(255, 255, 255);"/>
        <path class="st0" d="M505.3,617.8" style="stroke: rgb(255, 255, 255);"/>
        <path class="st0" d="M492.9,605.3c-1.9,3.8-2.6,8.2-2,12.5" style="stroke: rgb(255, 255, 255);"/>
        <path class="st0" d="M505.3,605.3" style="stroke: rgb(255, 255, 255);"/>
      </g>
    </g>
    <polyline class="st0" points="483.1,246.6 483.1,178 549.5,178 549.5,285.9 &#9;" style="stroke: rgb(255, 255, 255);"/>
  </g>
  <rect x="355.7" y="491.2" class="st2" width="13.6" height="13.6" style="stroke: rgb(255, 255, 255); fill: rgb(255, 255, 255);"/>
  <polyline class="st0" points="225.5,534.4 225.5,423.1 291.9,423.1 291.9,534.4 213.3,534.4 304.7,534.4 " style="stroke: rgb(255, 255, 255);"/>
  <line class="st0" x1="291.9" y1="468.1" x2="225.5" y2="468.1" style="stroke: rgb(255, 255, 255);"/>
  <polyline class="st0" points="483.1,539.2 483.1,427.9 549.5,427.9 549.5,539.2 470.8,539.2 562.2,539.2 " style="stroke: rgb(255, 255, 255);"/>
  <line class="st0" x1="549.5" y1="472.8" x2="483.1" y2="472.8" style="stroke: rgb(255, 255, 255);"/>
  <circle class="st0" cx="385.3" cy="338" r="43.2" style="stroke: rgb(255, 255, 255);"/>
  <line class="st0" x1="342.1" y1="338" x2="428.6" y2="338" style="stroke: rgb(255, 255, 255);"/>
  <line class="st0" x1="341.8" y1="324.1" x2="428.2" y2="324.1" style="stroke: rgb(255, 255, 255);"/>
  <line class="st0" x1="350.6" y1="310.1" x2="418.3" y2="310.1" style="stroke: rgb(255, 255, 255);"/>
</svg>