<?xml version="1.0" encoding="utf-8"?>
<svg version="1.1" x="0px" y="0px" viewBox="0 0 800 800" style="enable-background:new 0 0 800 800;" xmlns="http://www.w3.org/2000/svg" xmlns:xlink="http://www.w3.org/1999/xlink">
  <style type="text/css">
	.st0{fill:none;stroke:#000000;stroke-width:8;stroke-miterlimit:10;}
	.st1{fill:none;stroke:#000000;stroke-width:8;stroke-linecap:round;stroke-miterlimit:10;}
	.st2{fill:none;stroke:#000000;stroke-width:4;stroke-linecap:round;stroke-miterlimit:10;}
	.st3{fill:none;stroke:#000000;stroke-width:2;stroke-linecap:round;stroke-miterlimit:10;}
</style>
  <g id="Слой_1">
    <image style="display:none;overflow:visible;" width="1000" height="1080" transform="matrix(1 0 0 1 -148 -132)" xlink:href="../climat-control-line-icon-on-white-background-vector-28848352.jpg"/>
    <path class="st0" d="M346.5,232.7H230.2c-4,0-7.3-3.3-7.3-7.3v-21.8c0-4,3.3-7.3,7.3-7.3h116.3c4,0,7.3,3.3,7.3,7.3v21.8 C353.8,229.4,350.5,232.7,346.5,232.7z" style="stroke: rgb(255, 255, 255);"/>
    <rect x="267.5" y="298.7" class="st0" width="41.6" height="32.8" style="stroke: rgb(255, 255, 255);"/>
    <rect x="236.6" y="365.1" class="st0" width="103.4" height="43.4" style="stroke: rgb(255, 255, 255);"/>
    <rect x="214.4" y="442.1" class="st0" width="147.8" height="53.1" style="stroke: rgb(255, 255, 255);"/>
    <path class="st1" d="M397.4,284.8c19.7,1.2,33.2,17.3,33.2,37.3v218.5c0,19.9-13.6,36.1-33.2,37.3" style="stroke: rgb(255, 255, 255);"/>
    <path class="st1" d="M515.1,583.8h-31.8c-12,0-21.7-9.7-21.7-21.7V311.9c0-12,9.7-21.7,21.7-21.7h31.8c12,0,21.7,9.7,21.7,21.7 v250.2C536.8,574.1,527.1,583.8,515.1,583.8z" style="stroke: rgb(255, 255, 255);"/>
    <path class="st1" d="M637.4,386.5v175.6c0,12-9.7,21.7-21.7,21.7h-31.8c-12,0-21.7-9.7-21.7-21.7V311.9c0-12,9.7-21.7,21.7-21.7 h31.8c12,0,21.7,9.7,21.7,21.7v24.7" style="stroke: rgb(255, 255, 255);"/>
    <rect x="430.6" y="356.4" class="st1" width="31.1" height="32" style="stroke: rgb(255, 255, 255);"/>
    <rect x="430.6" y="488.3" class="st1" width="31.1" height="32" style="stroke: rgb(255, 255, 255);"/>
    <rect x="536.8" y="363.8" class="st1" width="25.4" height="32" style="stroke: rgb(255, 255, 255);"/>
    <rect x="536.8" y="490.1" class="st1" width="25.4" height="32" style="stroke: rgb(255, 255, 255);"/>
    <line class="st1" x1="484.1" y1="362" x2="484.1" y2="526" style="stroke: rgb(255, 255, 255);"/>
    <line class="st1" x1="583.5" y1="362" x2="583.5" y2="526" style="stroke: rgb(255, 255, 255);"/>
    <path class="st1" d="M415.8,181.1c5.4-5.4,36.7-35.5,85.7-34.5c46,0.9,75,28.5,81.1,34.5" style="stroke: rgb(255, 255, 255);"/>
    <path class="st1" d="M435.1,213c5.6-5,28.9-24.5,64.5-24.6c36-0.1,59.6,19.7,65.1,24.6" style="stroke: rgb(255, 255, 255);"/>
    <path class="st1" d="M452.4,246.2c2.7-2.9,19.8-20.4,47.1-20c26.2,0.4,42.4,16.9,45.2,20" style="stroke: rgb(255, 255, 255);"/>
    <circle class="st1" cx="640.9" cy="361.5" r="24.2" style="stroke: rgb(255, 255, 255);"/>
    <path class="st2" d="M634.2,349.6v10v9.6c0,2.8,2.2,5.2,5,5.2c0,0,0.1,0,0.1,0c3.1,0,4.9-2.2,5.1-2.5" style="stroke: rgb(255, 255, 255);"/>
    <line class="st2" x1="643.5" y1="361.2" x2="634.2" y2="361.2" style="stroke: rgb(255, 255, 255);"/>
    <circle class="st3" cx="646.8" cy="349.1" r="2.5" style="stroke: rgb(255, 255, 255);"/>
    <circle class="st1" cx="288.6" cy="577" r="18.6" style="stroke: rgb(255, 255, 255);"/>
    <path class="st1" d="M358.2,611H216.9c-21.9,0-39.7-17.8-39.7-39.7v-24.1h220.2v24.6C397.4,593.5,379.8,611,358.2,611z" style="stroke: rgb(255, 255, 255);"/>
  </g>
  <g id="Слой_2">
    <g>
      <path class="st0" d="M363.6,196.4c-0.6,0-1.1-0.1-1.7-0.1H212.7c-19.6,0-35.5,16-35.5,35.7v343.3c0,19.7,15.9,35.7,35.5,35.7 h149.1c7.6,0,14.6-2.4,20.4-6.5" style="stroke: rgb(255, 255, 255);"/>
      <path class="st0" d="M363.6,196.4c18.8,0.9,33.8,16.5,33.8,35.6v343.3c0,12.1-6,22.8-15.1,29.2" style="stroke: rgb(255, 255, 255);"/>
      <path class="st0" d="M363.6,193.7v2.7" style="stroke: rgb(255, 255, 255);"/>
    </g>
  </g>
</svg>