<?xml version="1.0" encoding="utf-8"?>
<svg version="1.1" id="Слой_2" x="0px" y="0px" viewBox="0 0 800 800" style="enable-background:new 0 0 800 800;" xmlns="http://www.w3.org/2000/svg">
  <style type="text/css">
	.st0{fill:none;stroke:#000000;stroke-width:8;stroke-miterlimit:10;}
	.st1{fill:none;stroke:#000000;stroke-width:8;stroke-linejoin:round;stroke-miterlimit:10;}
	.st2{fill:none;stroke:#000000;stroke-width:8;stroke-linecap:round;stroke-linejoin:round;stroke-miterlimit:10;}
	.st3{stroke:#000000;stroke-width:8;stroke-miterlimit:10;}
	.st4{fill:none;stroke:#000000;stroke-width:8;stroke-linecap:round;stroke-miterlimit:10;}
	.st5{stroke:#000000;stroke-width:8;stroke-linecap:round;stroke-miterlimit:10;}
</style>
  <line class="st0" x1="638" y1="607" x2="163" y2="607" style="stroke: rgb(255, 255, 255);"/>
  <line class="st0" x1="576.8" y1="604.9" x2="576.8" y2="574" style="stroke: rgb(255, 255, 255);"/>
  <line class="st0" x1="213.3" y1="607" x2="213.3" y2="560.5" style="stroke: rgb(255, 255, 255);"/>
  <polyline class="st1" points="408.3,460 408.3,139.2 280.1,187.7 277.8,455.7 " style="stroke: rgb(255, 255, 255);"/>
  <polyline class="st0" points="505.5,488.5 505.5,244.4 408.3,204.6 " style="stroke: rgb(255, 255, 255);"/>
  <polyline class="st0" points="278.2,405.8 408.3,405.8 408.3,427.2 505.5,427.2 " style="stroke: rgb(255, 255, 255);"/>
  <line class="st0" x1="281.7" y1="543.1" x2="281.7" y2="604.9" style="stroke: rgb(255, 255, 255);"/>
  <line class="st0" x1="352.1" y1="543.1" x2="352.1" y2="604.9" style="stroke: rgb(255, 255, 255);"/>
  <line class="st0" x1="281.7" y1="574" x2="352.1" y2="574" style="stroke: rgb(255, 255, 255);"/>
  <line class="st0" x1="401.4" y1="543.1" x2="401.4" y2="604.9" style="stroke: rgb(255, 255, 255);"/>
  <line class="st0" x1="449.2" y1="543.1" x2="449.2" y2="604.9" style="stroke: rgb(255, 255, 255);"/>
  <line class="st0" x1="520.7" y1="543.1" x2="520.7" y2="604.9" style="stroke: rgb(255, 255, 255);"/>
  <line class="st0" x1="449.2" y1="571.7" x2="520.7" y2="571.7" style="stroke: rgb(255, 255, 255);"/>
  <line class="st0" x1="265.3" y1="507.9" x2="430.3" y2="507.9" style="stroke: rgb(255, 255, 255);"/>
  <line class="st0" x1="391.8" y1="476.2" x2="328.7" y2="476.2" style="stroke: rgb(255, 255, 255);"/>
  <g>
    <path class="st0" d="M249,543.1v61.8h303.8v-43.2c-4-5.1-6.4-11.6-6.4-18.6H249z" style="stroke: rgb(255, 255, 255);"/>
    <path class="st2" d="M546.4,543.1c0-15.2,11.2-27.8,25.8-30v-22.6c-11.9-6.2-23.7-12.5-35.6-18.7c-5,4.1-30.8,24.3-66,19.7 c-20-2.6-34.1-12.1-40.9-17.4c-8.1-6.5-46.5-36-102.1-31.7c-49.3,3.8-81.2,31.6-93.1,43.8c5.6,18.2,9.1,38.7,9.1,47.2 c0,3.4-0.6,6.6-1.6,9.6h6.9v0H546.4z" style="stroke: rgb(255, 255, 255);"/>
    <rect x="249" y="543.1" class="st0" width="297.4" height="0" style="stroke: rgb(255, 255, 255);"/>
    <path class="st0" d="M552.8,561.7c5.6,7.2,14.2,11.8,24,11.8c16.8,0,30.4-13.6,30.4-30.4c0-16.8-13.6-30.4-30.4-30.4 c-1.6,0-3.1,0.1-4.6,0.3" style="stroke: rgb(255, 255, 255);"/>
    <path class="st0" d="M546.4,543.1c0,7,2.4,13.5,6.4,18.6" style="stroke: rgb(255, 255, 255);"/>
    <line class="st0" x1="546.4" y1="543.1" x2="546.4" y2="543.1" style="stroke: rgb(255, 255, 255);"/>
    <path class="st0" d="M230.6,543.1" style="stroke: rgb(255, 255, 255);"/>
    <path class="st0" d="M234.6,486.3c-5.5-17.9-13-33.6-21.3-33.6c-16.8,0-30.4,64-30.4,80.8c0,16.8,13.6,30.4,30.4,30.4 c13.4,0,24.8-8.7,28.8-20.8" style="stroke: rgb(255, 255, 255);"/>
    <path class="st0" d="M242.1,543.1c1-3,1.6-6.3,1.6-9.6c0-8.5-3.5-29-9.1-47.2" style="stroke: rgb(255, 255, 255);"/>
  </g>
  <rect x="531.6" y="503.2" class="st3" width="9.4" height="9.4" style="stroke: rgb(255, 255, 255); fill: rgb(255, 255, 255);"/>
  <line class="st4" x1="390.3" y1="177.6" x2="295.1" y2="209.6" style="stroke: rgb(255, 255, 255);"/>
  <line class="st4" x1="390.3" y1="212.7" x2="296.5" y2="237.8" style="stroke: rgb(255, 255, 255);"/>
  <line class="st4" x1="390.3" y1="248.8" x2="296.8" y2="267.2" style="stroke: rgb(255, 255, 255);"/>
  <line class="st4" x1="390.3" y1="282.2" x2="298.2" y2="295.3" style="stroke: rgb(255, 255, 255);"/>
  <line class="st4" x1="390.3" y1="315.8" x2="297.5" y2="324.6" style="stroke: rgb(255, 255, 255);"/>
  <line class="st4" x1="391.8" y1="346.4" x2="295.1" y2="352.6" style="stroke: rgb(255, 255, 255);"/>
  <rect x="432.1" y="251.2" class="st5" width="12.2" height="12.2" style="stroke: rgb(255, 255, 255); fill: rgb(255, 255, 255);"/>
  <rect x="465.1" y="251.2" class="st5" width="12.2" height="12.2" style="stroke: rgb(255, 255, 255); fill: rgb(255, 255, 255);"/>
  <rect x="432.3" y="277.7" class="st5" width="12.2" height="12.2" style="stroke: rgb(255, 255, 255); fill: rgb(255, 255, 255);"/>
  <rect x="465.3" y="277.7" class="st5" width="12.2" height="12.2" style="stroke: rgb(255, 255, 255); fill: rgb(255, 255, 255);"/>
  <rect x="432.1" y="303.6" class="st5" width="12.2" height="12.2" style="stroke: rgb(255, 255, 255); fill: rgb(255, 255, 255);"/>
  <rect x="465.1" y="303.6" class="st5" width="12.2" height="12.2" style="stroke: rgb(255, 255, 255); fill: rgb(255, 255, 255);"/>
  <rect x="432.3" y="330.1" class="st5" width="12.2" height="12.2" style="stroke: rgb(255, 255, 255); fill: rgb(255, 255, 255);"/>
  <rect x="465.3" y="330.1" class="st5" width="12.2" height="12.2" style="stroke: rgb(255, 255, 255); fill: rgb(255, 255, 255);"/>
  <rect x="432.1" y="354.6" class="st5" width="12.2" height="12.2" style="stroke: rgb(255, 255, 255); fill: rgb(255, 255, 255);"/>
  <rect x="465.1" y="354.6" class="st5" width="12.2" height="12.2" style="stroke: rgb(255, 255, 255); fill: rgb(255, 255, 255);"/>
  <rect x="432.3" y="381.1" class="st5" width="12.2" height="12.2" style="stroke: rgb(255, 255, 255); fill: rgb(255, 255, 255);"/>
  <rect x="465.3" y="381.1" class="st5" width="12.2" height="12.2" style="stroke: rgb(255, 255, 255); fill: rgb(255, 255, 255);"/>
</svg>