<svg width="99" height="65" viewBox="0 0 99 65" fill="none" xmlns="http://www.w3.org/2000/svg">
<g filter="url(#filter0_d)">
<path fill-rule="evenodd" clip-rule="evenodd" d="M31.7427 11.6398C30.6857 12.2918 28.8715 14.8104 27.6742 17.288C26.7458 19.2091 24.2728 25.4785 22.7132 29.865C22.0322 31.7802 21.4207 33.3473 21.3544 33.3473C21.1985 33.3473 20.1111 30.7494 17.1598 23.3261C15.8465 20.0228 14.5568 16.9081 14.2939 16.4048C13.4519 14.7931 12.2397 14.6069 11.352 15.9527C10.844 16.723 10.8899 19.1409 11.4632 21.8099C12.2216 25.3404 14.6182 32.1041 17.1823 37.9497C18.5469 41.0609 19.4182 42.5671 20.3218 43.377C22.0528 44.9284 24.4837 43.93 25.1186 41.4067C26.3417 36.5474 27.4715 33.1668 30.5809 25.0633C32.7339 19.4517 33.24 17.9889 33.7431 15.921C34.4483 13.0215 34.0863 11.406 32.7337 11.4185C32.3807 11.4219 31.9347 11.5215 31.7427 11.6398ZM73.7268 11.5366C72.3865 11.7109 70.6086 12.2742 69.4312 12.8977C67.4966 13.9222 65.8711 15.7434 65.8711 16.8865C65.8711 17.3801 65.9494 17.3838 66.6361 16.9224C67.3415 16.4486 69.258 15.6543 71.021 15.1051C72.8702 14.5291 75.5561 14.4906 77.3523 15.0142C80.0611 15.8041 80.9605 14.3251 78.774 12.6761C77.6897 11.8584 75.3372 11.3273 73.7268 11.5366ZM71.5298 15.4055C69.7307 16.3062 69.6403 18.8945 71.375 19.8365C72.9306 20.6814 74.6014 19.4809 74.599 17.5201C74.5983 16.9 74.0534 15.8262 73.602 15.5554C73.0057 15.1972 72.0796 15.1302 71.5298 15.4055ZM76.8849 18.664C74.7166 20.4764 73.9918 20.7175 71.2907 20.5246C67.5016 20.2537 67.3627 20.2625 67.2979 20.775C67.211 21.463 68.5196 22.8114 69.799 23.352C71.8547 24.2207 74.791 24.0588 76.684 22.9726C77.6188 22.4362 78.9351 21.0567 79.3204 20.2096C79.7015 19.3716 79.7746 17.8842 79.4527 17.523C79.0463 17.0671 78.5107 17.3051 76.8849 18.664ZM37.661 23.352C33.8028 24.0153 30.3936 27.2178 29.0986 31.3953C27.3966 36.8859 29.7556 42.1547 34.7104 43.9296C35.7012 44.2845 36.3288 44.3662 38.0272 44.3611C42.3623 44.3478 44.416 43.1844 47.4116 39.0451L48.4614 37.5944L45.5137 37.7151C43.6683 37.7907 41.8946 37.9853 40.7706 38.2354C38.6609 38.7051 37.0952 38.7438 35.9435 38.3549C35.1843 38.0985 34.4475 37.5699 34.4492 37.2828C34.4496 37.2188 35.412 37.1551 36.5877 37.1416C42.7928 37.0701 47.2794 33.7886 46.7784 29.688C46.2889 25.6817 41.8901 22.625 37.661 23.352ZM58.3646 25.5008C57.496 25.7983 56.4952 26.4796 55.5993 27.3832C55.0965 27.8905 54.6653 28.272 54.6412 28.2315C54.6171 28.1907 54.4434 27.8188 54.2552 27.4048C53.5465 25.8463 52.0698 25.3259 51.2797 26.3564C51.0564 26.6477 50.8181 27.2162 50.7502 27.6196C50.5793 28.6357 51.5508 41.5548 51.919 43.1629C52.369 45.1282 54.3565 46.1053 55.7545 45.0485C56.8651 44.2087 57.003 43.6895 57.0573 40.1449C57.095 37.6808 57.1873 36.6275 57.4696 35.438C57.865 33.7721 58.5359 32.2322 59.1469 31.5882C59.484 31.233 59.562 31.2175 59.7483 31.4692C60.1749 32.0459 60.4572 33.9071 60.6421 37.3622C60.7458 39.301 60.9114 41.2346 61.0099 41.659C61.2395 42.6478 62.1085 43.6202 63.0431 43.9343C64.4491 44.4069 65.9879 43.4265 66.3891 41.8022C66.7276 40.4318 66.0997 33.7374 65.4031 31.2909C64.6174 28.5315 63.001 26.2462 61.4023 25.6351C60.5394 25.3053 59.1189 25.2425 58.3646 25.5008ZM72.542 25.6144C71.4029 26.1663 71.2503 27.5227 71.7355 32.7813C71.8884 34.439 72.0312 37.0733 72.0528 38.6351C72.0839 40.8862 72.1548 41.6087 72.3943 42.12C73.2651 43.9798 75.7436 43.9798 76.639 42.12C77.1115 41.1386 76.9904 39.2152 76.0985 33.5432C75.1808 27.707 74.9509 26.7518 74.2983 26.0662C73.6537 25.389 73.2314 25.2803 72.542 25.6144ZM40.7306 28.773C41.4959 29.1306 42.1296 29.7886 42.1296 30.2254C42.1296 30.9237 40.166 31.8456 36.5362 32.8514C35.148 33.2361 33.8747 33.5992 33.7066 33.6581C33.2754 33.8095 33.3199 33.4417 33.8986 32.0743C34.3794 30.938 35.5012 29.5634 36.3873 29.0244C37.6212 28.2738 39.4379 28.1686 40.7306 28.773Z" fill="#FAFAFA"/>
</g>
<defs>
<filter id="filter0_d" x="0" y="0.418457" width="99" height="64.0623" filterUnits="userSpaceOnUse" color-interpolation-filters="sRGB">
<feFlood flood-opacity="0" result="BackgroundImageFix"/>
<feColorMatrix in="SourceAlpha" type="matrix" values="0 0 0 0 0 0 0 0 0 0 0 0 0 0 0 0 0 0 127 0"/>
<feOffset dx="4" dy="4"/>
<feGaussianBlur stdDeviation="7.5"/>
<feColorMatrix type="matrix" values="0 0 0 0 0 0 0 0 0 0 0 0 0 0 0 0 0 0 0.25 0"/>
<feBlend mode="normal" in2="BackgroundImageFix" result="effect1_dropShadow"/>
<feBlend mode="normal" in="SourceGraphic" in2="effect1_dropShadow" result="shape"/>
</filter>
</defs>
</svg>
