<?xml version="1.0" encoding="utf-8"?>
<svg version="1.1" x="0px" y="0px" viewBox="0 0 800 800" style="enable-background:new 0 0 800 800;" xmlns="http://www.w3.org/2000/svg">
  <style type="text/css">
	.st0{fill:none;stroke:#000000;stroke-width:8;stroke-miterlimit:10;}
	.st1{fill:none;stroke:#000000;stroke-width:8;stroke-linecap:round;stroke-miterlimit:10;}
</style>
  <g id="Слой_2">
    <path class="st0" d="M518.8,605.9v56c0,15.5-12.6,28.1-28.1,28.1H205.8c-15.5,0-28.1-12.6-28.1-28.1V138 c0-15.5,12.6-28.1,28.1-28.1h284.9c15.5,0,28.1,12.6,28.1,28.1v59.6" style="stroke: rgb(255, 255, 255);"/>
    <circle class="st0" cx="349.3" cy="504.2" r="135.8" style="stroke: rgb(255, 255, 255);"/>
    <circle class="st0" cx="349.3" cy="504.2" r="110.8" style="stroke: rgb(255, 255, 255);"/>
    <line class="st1" x1="75.6" y1="161" x2="122.6" y2="170.2" style="stroke: rgb(255, 255, 255);"/>
    <line class="st1" x1="78.7" y1="319.3" x2="125.6" y2="296.4" style="stroke: rgb(255, 255, 255);"/>
    <line class="st1" x1="85.8" y1="236.6" x2="122.6" y2="236.6" style="stroke: rgb(255, 255, 255);"/>
    <line class="st1" x1="557.3" y1="165.6" x2="627.8" y2="147.7" style="stroke: rgb(255, 255, 255);"/>
    <line class="st1" x1="582.1" y1="628.8" x2="647.2" y2="651.2" style="stroke: rgb(255, 255, 255);"/>
    <line class="st1" x1="151.2" y1="432.7" x2="85.8" y2="401.3" style="stroke: rgb(255, 255, 255);"/>
    <line class="st1" x1="146.1" y1="503.9" x2="85.8" y2="504.2" style="stroke: rgb(255, 255, 255);"/>
    <line class="st1" x1="156.3" y1="593.2" x2="85.8" y2="627.7" style="stroke: rgb(255, 255, 255);"/>
  </g>
  <g id="Слой_3">
    <circle class="st0" cx="348.3" cy="236.6" r="88.9" style="stroke: rgb(255, 255, 255);"/>
  </g>
  <g id="Слой_4">
    <circle class="st0" cx="349.3" cy="236.6" r="66.4" style="stroke: rgb(255, 255, 255);"/>
    <circle class="st0" cx="348.3" cy="504.2" r="20.2" style="stroke: rgb(255, 255, 255);"/>
    <circle class="st0" cx="349.3" cy="236.6" r="20.2" style="stroke: rgb(255, 255, 255);"/>
    <line class="st0" x1="363.9" y1="491.1" x2="433" y2="431.6" style="stroke: rgb(255, 255, 255);"/>
    <line class="st0" x1="265.1" y1="576.2" x2="332" y2="518.6" style="stroke: rgb(255, 255, 255);"/>
    <line class="st0" x1="365.4" y1="221.8" x2="401" y2="195" style="stroke: rgb(255, 255, 255);"/>
    <line class="st0" x1="295" y1="274.8" x2="330.7" y2="248" style="stroke: rgb(255, 255, 255);"/>
    <path class="st0" d="M667.1,230.3H550.8c-4,0-7.3-3.3-7.3-7.3v-21.8c0-4,3.3-7.3,7.3-7.3h116.3c4,0,7.3,3.3,7.3,7.3V223 C674.4,227.1,671.2,230.3,667.1,230.3z" style="stroke: rgb(255, 255, 255);"/>
    <rect x="588.2" y="296.4" class="st0" width="41.6" height="32.8" style="stroke: rgb(255, 255, 255);"/>
    <rect x="557.3" y="362.8" class="st0" width="103.4" height="43.4" style="stroke: rgb(255, 255, 255);"/>
    <rect x="535.1" y="439.8" class="st0" width="147.8" height="53.1" style="stroke: rgb(255, 255, 255);"/>
    <circle class="st1" cx="609.2" cy="574.6" r="18.6" style="stroke: rgb(255, 255, 255);"/>
    <path class="st1" d="M678.8,608.7H537.6c-21.9,0-39.7-17.8-39.7-39.7v-24.1H718v24.6C718,591.1,700.5,608.7,678.8,608.7z" style="stroke: rgb(255, 255, 255);"/>
    <g>
      <path class="st0" d="M684.2,194c-0.6,0-1.1-0.1-1.7-0.1H533.4c-19.6,0-35.5,16-35.5,35.7V573c0,19.7,15.9,35.7,35.5,35.7h149.1 c7.6,0,14.6-2.4,20.4-6.5" style="stroke: rgb(255, 255, 255);"/>
      <path class="st0" d="M684.2,194c18.8,0.9,33.8,16.5,33.8,35.6V573c0,12.1-6,22.8-15.1,29.2" style="stroke: rgb(255, 255, 255);"/>
      <path class="st0" d="M684.2,191.3v2.7" style="stroke: rgb(255, 255, 255);"/>
    </g>
  </g>
</svg>