<?xml version="1.0" encoding="utf-8"?>
<svg version="1.1" x="0px" y="0px" viewBox="0 0 800 800" style="enable-background:new 0 0 800 800;" xmlns="http://www.w3.org/2000/svg">
  <style type="text/css">
	.st0{fill:none;stroke:#000000;stroke-width:8;stroke-linecap:round;stroke-miterlimit:10;}
	.st1{stroke:#000000;stroke-width:8;stroke-linecap:round;stroke-miterlimit:10;}
</style>
  <g id="Слой_2">
    <path class="st0" d="M472.6,536.7c-17.7,2.8-38.7,4.8-62.3,4.6c-21.3-0.2-40.3-2-56.7-4.6c-5,0.3-9,4.3-9.3,9.3 c-0.3,4.6,2.3,9.3,8.1,10.4c16.7,2.7,36.3,4.7,58.4,4.9c22.5,0.1,42.6-1.8,59.5-4.3c5.1,0.5,9,4.8,9.2,9.9 c0.2,4.7-2.6,9.5-8.5,10.5c-16.9,2.8-37,4.9-59.7,4.9c-18.9-0.1-35.9-1.7-50.7-3.9c-4.6,1.3-7.8,5.4-8,10.2 c-0.2,4.8,2.1,9.7,7.1,10.8c15.3,1.9,32.6,3.2,51.6,3.3c17.3,0.1,33.2-1,47.4-2.5c0.6,0.5,5.5,4.8,5.2,11.9 c-0.2,5.6-2.2,11.1-5.9,11.6c-12.6,1.9-27.7,3.1-44.6,2.6c-12.3-0.4-23.4-1.7-33.2-3.3c-3.6-0.1-6.3,1.9-6.7,4.1 c-0.1,1,0.2,2,1,3.2l9.3,8.6c3.7,3.4,7,7.4,9.4,11.9c3.7,7.2,11.3,11.8,19.4,11.3c9-0.5,16.9-7.2,18.9-16.3" style="stroke: rgb(255, 255, 255);"/>
    <line class="st0" x1="268.8" y1="444.3" x2="209.6" y2="477" style="stroke: rgb(255, 255, 255);"/>
    <line class="st0" x1="247.4" y1="362.6" x2="178" y2="362.6" style="stroke: rgb(255, 255, 255);"/>
    <line class="st0" x1="268.8" y1="282.9" x2="209.6" y2="247.2" style="stroke: rgb(255, 255, 255);"/>
    <line class="st0" x1="318.9" y1="232.9" x2="280.4" y2="175.7" style="stroke: rgb(255, 255, 255);"/>
    <line class="st0" x1="379.1" y1="204.3" x2="365" y2="138.1" style="stroke: rgb(255, 255, 255);"/>
    <line class="st0" x1="448.4" y1="204.3" x2="471.1" y2="138.1" style="stroke: rgb(255, 255, 255);"/>
    <line class="st0" x1="517" y1="232.9" x2="562.8" y2="175.7" style="stroke: rgb(255, 255, 255);"/>
    <line class="st0" x1="562.8" y1="282.9" x2="627.3" y2="247.2" style="stroke: rgb(255, 255, 255);"/>
    <line class="st0" x1="573.2" y1="362.6" x2="642.6" y2="362.6" style="stroke: rgb(255, 255, 255);"/>
    <line class="st0" x1="553.8" y1="444.3" x2="613" y2="477" style="stroke: rgb(255, 255, 255);"/>
  </g>
  <g id="Слой_3">
    <path class="st0" d="M544.1,351.2c0-73.1-59.5-132.3-132.8-131.8c-72.3,0.5-131.1,59.9-130.9,132.2c0.1,24.6,6.9,47.6,18.6,67.2 c16.7,27.9,50.7,63.9,50.7,96.4c17.9,3.3,39.9,5.9,65.1,5.9c24.4-0.1,45.8-2.6,63.3-5.9c3.9-23,11.1-39.3,17.3-49.9 c9.7-16.5,21.5-32.5,29.9-46.4C537.2,399,544.1,375.9,544.1,351.2z" style="stroke: rgb(255, 255, 255);"/>
    <path class="st0" d="M403.1,520.8l-1-105.1c0-0.4-0.1-0.8-0.3-1.2c-1.5-3.3-5.3-10.8-13.8-16c-7.5-4.7-15.1-5.5-20.1-5.3 c-2.4,0.1-3.8,2.7-2.5,4.7c2.4,3.7,5.8,7.9,10.8,11.6c11.4,8.3,23.7,8.2,35.2,8.2c11.2-0.1,21.7-0.1,32.2-7.1 c5.6-3.8,9.4-8.4,12-12.3c1.4-2.1-0.2-4.8-2.7-4.8c-4.1,0.1-9.6,1-15.4,4.1c-10.3,5.5-14.6,14.6-15.9,17.9 c-0.1,0.3-0.2,0.7-0.2,1.1c-0.9,32.6-0.6,71.9-1.5,104.5" style="stroke: rgb(255, 255, 255);"/>
    <path class="st0" d="M362.5,319.7c3.1-3.1,21.2-20.5,49.5-19.9c26.5,0.5,43.3,16.5,46.8,19.9" style="stroke: rgb(255, 255, 255);"/>
    <path class="st0" d="M373.6,338.1c3.2-2.9,16.7-14.1,37.2-14.2c20.7-0.1,34.4,11.4,37.6,14.2" style="stroke: rgb(255, 255, 255);"/>
    <path class="st0" d="M383.6,357.3c1.6-1.7,11.4-11.8,27.2-11.5c15.1,0.2,24.4,9.8,26.1,11.5" style="stroke: rgb(255, 255, 255);"/>
    <circle class="st1" cx="411.2" cy="376.1" r="8.1" style="stroke: rgb(255, 255, 255); fill: rgb(255, 255, 255);"/>
  </g>
</svg>