<?xml version="1.0" encoding="utf-8"?>
<svg version="1.1" x="0px" y="0px" viewBox="0 0 800 800" style="enable-background:new 0 0 800 800;" xmlns="http://www.w3.org/2000/svg" xmlns:xlink="http://www.w3.org/1999/xlink">
  <style type="text/css">
	.st0{display:none;}
	.st1{fill:none;stroke:#000000;stroke-width:8;stroke-miterlimit:10;}
	.st2{fill:none;stroke:#000000;stroke-width:8;stroke-linecap:round;stroke-miterlimit:10;}
</style>
  <g id="Слой_1" class="st0">
    <image style="display:inline;overflow:visible;" width="720" height="980" transform="matrix(0.6722 0 0 0.6722 191 76)" xlink:href="../remote-controls-computer-icons-universal-remote-others.jpg"/>
  </g>
  <g id="Слой_2">
    <path class="st1" d="M511,728c-8.1-10.6-20.1-29-27.1-54.7c-5.9-21.6-6.2-40.7-5.1-54.6c0.6-7.3-1.5-14.5-5.9-20.3 c-22.1-29.5-44.1-59-66.2-88.6c-9-12-7.9-29.1,3.1-39.4c0.4-0.3,0.7-0.7,1.1-1c2.9-2.4,6.1-4.3,9.5-5.6c11.2-4.2,23.9-0.9,32.1,7.9 c26.2,28.3,52.4,56.7,78.6,85" style="stroke: rgb(255, 255, 255);"/>
    <path class="st1" d="M670,728l-67.8-83.8c-11-13.6-17.1-30.6-17.2-48.1c-0.2-34.3-1-64.1-2-88.7c-1-26,2.1-43.2-10.2-56.2 c-19.9-20.9-41.7-39.3-65.7-60.8" style="stroke: rgb(255, 255, 255);"/>
    <path class="st1" d="M483.2,657.7c-5.9,3.8-12.7,5.9-19.9,5.9H310c-22.7,0-41.1-21.3-41.1-47.5v-288c0-26.2,18.4-47.5,41.1-47.5 h153.3c22.7,0,41.1,21.3,41.1,47.5v199.3" style="stroke: rgb(255, 255, 255);"/>
    <line class="st1" x1="270.2" y1="618.8" x2="478.8" y2="618.8" style="stroke: rgb(255, 255, 255);"/>
    <path class="st2" d="M359.7,280.7c17.3,13.3,18.2,18.7,27.2,18.9c6.8,0.1,7.9-2.3,29.7-18.9" style="stroke: rgb(255, 255, 255);"/>
    <path class="st2" d="M303.2,171.5c5.4-5.4,36.7-35.5,85.7-34.5c46,0.9,75,28.5,81.1,34.5" style="stroke: rgb(255, 255, 255);"/>
    <path class="st2" d="M322.5,203.4c5.6-5,28.9-24.5,64.5-24.6c36-0.1,59.6,19.7,65.1,24.6" style="stroke: rgb(255, 255, 255);"/>
    <path class="st2" d="M339.8,236.7c2.7-2.9,19.8-20.4,47.1-20c26.2,0.4,42.4,16.9,45.2,20" style="stroke: rgb(255, 255, 255);"/>
    <path class="st2" d="M412.8,518.1h-95.4c-13.3,0-24-10.7-24-24v-31.7c0-13.3,10.7-24,24-24h137.3c13.3,0,24,10.7,24,24v31.7 c0,2.5-0.2,4,0,6.4" style="stroke: rgb(255, 255, 255);"/>
  </g>
</svg>