<?xml version="1.0" encoding="utf-8"?>
<svg version="1.1" id="Слой_1" x="0px" y="0px" viewBox="0 0 800 800" style="enable-background:new 0 0 800 800;" xmlns="http://www.w3.org/2000/svg">
  <style type="text/css">
	.st0{fill:none;stroke:#000000;stroke-width:8;stroke-miterlimit:10;}
</style>
  <path class="st0" d="M157.9,340.2c6.3,4.2,14.2,5.4,21.4,3.2l119.5-35.8c20.4-6.3,42.1-3.9,58.9,6.3l42.7,26 c5.7,3.5,13.2,4.2,20.1,2l105.7-33.5c23.5-7.5,37.3-30.1,30.8-50.5l-16.1-50.9c-4.7-14.7-20.3-22.8-35-18.2L125.6,309.4 c-3.7,1.2-4.4,6.1-1.2,8.3L157.9,340.2z" style="stroke: rgb(255, 255, 255);"/>
  <path class="st0" d="M569.8,325.5c1.3,4-1.4,8.4-6,9.8l-276.7,87.8c-29.7,9.4-61-5.8-69.9-33.9l-9.6-30.4c-1.3-4,1.4-8.4,6-9.8 l89.9-28.5c15.1-4.8,31.4-2.7,44.3,5.5l38.8,24.9c11,7,24.8,8.9,37.7,5.1l133.2-41.4c4.6-1.4,9.3,0.6,10.5,4.6L569.8,325.5z" style="stroke: rgb(255, 255, 255);"/>
  <path class="st0" d="M212.3,422.7l-14.9,18.9c-2.9,3.7-8.9,2.7-10.3-1.9l-23.6-74.5c-1.4-4.5,2.8-8.8,7.3-7.5l23.1,6.9 c1.9,0.6,3.4,2,4,3.9l15.5,48.7C213.9,419.1,213.5,421.1,212.3,422.7z" style="stroke: rgb(255, 255, 255);"/>
  <path class="st0" d="M520.8,369.4l-138.1,43.8c-0.4,0.1-0.6,0.6-0.5,1l8.2,25.9c0.1,0.4,0.6,0.6,1,0.5h0 c12.3-3.9,25.4,2.6,29.8,14.7c0.1,0.2,0.1,0.4,0.2,0.5c8.8,23.1,34,36,57.9,29.6c26.9-7.2,42.1-35.3,33.7-61.6c0-0.1,0-0.1-0.1-0.2 c-3.5-10.8,2.3-22.3,13.1-25.7l3.5-1.1c0.4-0.1,0.6-0.6,0.5-1l-8.2-25.9C521.6,369.4,521.2,369.2,520.8,369.4z" style="stroke: rgb(255, 255, 255);"/>
  <circle class="st0" cx="466.2" cy="437" r="35" style="stroke: rgb(255, 255, 255);"/>
  <circle class="st0" cx="466.2" cy="437" r="8.8" style="stroke: rgb(255, 255, 255);"/>
  <path class="st0" d="M613.8,463.9v64.3c0,0,0,0,0,0H509.3c0,0,0,0,0,0l-0.7-37.8c0-1.4-0.9-2.7-2.3-3.1l0,0 c-6.2-2.1-13.1,10-21.5,15c-6,3.6-16.3,5.5-34.9-2.3c-1.5-0.6-3.1,0.4-3.1,2v26.3v48.2c0,0,0,0,0,0h41.4h125.5c0,0,0,0,0,0v55 c0,0,0,0,0,0h41.3c0,0,0,0,0,0V463.9c0,0,0,0,0,0L613.8,463.9C613.8,463.8,613.8,463.8,613.8,463.9z" style="stroke: rgb(255, 255, 255);"/>
</svg>