<?xml version="1.0" encoding="utf-8"?>
<svg version="1.1" id="Слой_2" x="0px" y="0px" viewBox="0 0 800 800" style="enable-background:new 0 0 800 800;" xmlns="http://www.w3.org/2000/svg">
  <style type="text/css">
	.st0{fill:none;stroke:#000000;stroke-width:8;stroke-miterlimit:10;}
	.st1{stroke:#000000;stroke-width:8;stroke-miterlimit:10;}
	.st2{fill:none;stroke:#000000;stroke-width:8;stroke-linecap:round;stroke-miterlimit:10;}
</style>
  <path class="st0" d="M569.2,229H230.6c-2.5,0-4.5-2-4.5-4.5v-28.3c0-2.5,2-4.5,4.5-4.5h338.6c2.5,0,4.5,2,4.5,4.5v28.3 C573.7,227,571.7,229,569.2,229z" style="stroke: rgb(255, 255, 255);"/>
  <path class="st1" d="M218.1,220.1c-5.2-0.2-9.4-4.5-9.5-9.7c-0.1-5.3,4.2-9.7,9.5-9.9C218.1,207.1,218.1,213.6,218.1,220.1z" style="stroke: rgb(255, 255, 255); fill: rgb(255, 255, 255);"/>
  <path class="st1" d="M581.9,220.1c5.2-0.2,9.4-4.5,9.5-9.7c0.1-5.3-4.2-9.7-9.5-9.9C581.9,207.1,581.9,213.6,581.9,220.1z" style="stroke: rgb(255, 255, 255); fill: rgb(255, 255, 255);"/>
  <line class="st2" x1="584.5" y1="222" x2="584.5" y2="333.4" style="stroke: rgb(255, 255, 255);"/>
  <path class="st2" d="M583,377.9l-2.8-28.9c-0.1-1.2,0.9-2.2,2.1-2c0.8,0.1,1.6,0.2,2.5,0.2c0.8,0,1.5-0.1,2.1-0.2 c1.2-0.2,2.2,0.7,2.1,1.9c-0.8,9.6-1.6,19.3-2.4,28.9C586.4,380,583.2,380.1,583,377.9z" style="stroke: rgb(255, 255, 255);"/>
  <polyline class="st2" points="254.3,229 254.3,495.9 543.3,495.9 543.3,229 " style="stroke: rgb(255, 255, 255);"/>
  <line class="st2" x1="294.5" y1="229" x2="294.5" y2="495.9" style="stroke: rgb(255, 255, 255);"/>
  <line class="st2" x1="317.8" y1="495.9" x2="320.1" y2="229" style="stroke: rgb(255, 255, 255);"/>
  <line class="st2" x1="480.9" y1="229" x2="480.9" y2="495.9" style="stroke: rgb(255, 255, 255);"/>
  <line class="st2" x1="502.5" y1="495.9" x2="502.5" y2="229" style="stroke: rgb(255, 255, 255);"/>
  <line class="st2" x1="239.7" y1="253.5" x2="419.2" y2="253.5" style="stroke: rgb(255, 255, 255);"/>
  <line class="st2" x1="441.9" y1="253.5" x2="556.1" y2="253.5" style="stroke: rgb(255, 255, 255);"/>
  <line class="st2" x1="239.7" y1="272.2" x2="556.1" y2="272.2" style="stroke: rgb(255, 255, 255);"/>
  <line class="st2" x1="556.1" y1="290.2" x2="239.7" y2="290.2" style="stroke: rgb(255, 255, 255);"/>
  <line class="st2" x1="239.7" y1="307.7" x2="556.1" y2="307.7" style="stroke: rgb(255, 255, 255);"/>
  <line class="st2" x1="239.7" y1="325.2" x2="556.1" y2="325.2" style="stroke: rgb(255, 255, 255);"/>
  <line class="st2" x1="240.6" y1="360.2" x2="557" y2="360.2" style="stroke: rgb(255, 255, 255);"/>
  <line class="st2" x1="239.7" y1="378.2" x2="556.1" y2="378.2" style="stroke: rgb(255, 255, 255);"/>
  <line class="st2" x1="239.7" y1="396.3" x2="556.1" y2="396.3" style="stroke: rgb(255, 255, 255);"/>
  <line class="st2" x1="240.6" y1="414.3" x2="557" y2="414.3" style="stroke: rgb(255, 255, 255);"/>
  <line class="st2" x1="239.7" y1="432.4" x2="556.1" y2="432.4" style="stroke: rgb(255, 255, 255);"/>
  <line class="st2" x1="240.6" y1="450.5" x2="557" y2="450.5" style="stroke: rgb(255, 255, 255);"/>
  <line class="st2" x1="240.6" y1="341.5" x2="341.1" y2="341.5" style="stroke: rgb(255, 255, 255);"/>
  <line class="st2" x1="367.3" y1="341.5" x2="557" y2="341.5" style="stroke: rgb(255, 255, 255);"/>
  <line class="st2" x1="556.1" y1="466.2" x2="455.6" y2="466.2" style="stroke: rgb(255, 255, 255);"/>
  <line class="st2" x1="435.2" y1="466.2" x2="240.6" y2="466.2" style="stroke: rgb(255, 255, 255);"/>
  <path class="st2" d="M539.2,559.9H216.4c-4.3,0-7.8,3.5-7.8,7.8V595c0,4.3,3.5,7.8,7.8,7.8h371.2c4.3,0,7.8-3.5,7.8-7.8v-27.2 c0-4.3-3.5-7.8-7.8-7.8H539.2" style="stroke: rgb(255, 255, 255);"/>
  <path class="st2" d="M226.1,495.9"/>
  <rect x="254.3" y="229" class="st2" width="289" height="330.9" style="stroke: rgb(255, 255, 255);"/>
  <line class="st2" x1="278.1" y1="495.9" x2="278.1" y2="559.9" style="stroke: rgb(255, 255, 255);"/>
  <line class="st2" x1="520.1" y1="495.9" x2="520.1" y2="559.9" style="stroke: rgb(255, 255, 255);"/>
</svg>